<?xml version="1.0" encoding="utf-8"?>
<!-- Generator: Adobe Illustrator 25.3.1, SVG Export Plug-In . SVG Version: 6.00 Build 0)  -->
<svg version="1.1" id="Layer_1" xmlns="http://www.w3.org/2000/svg" xmlns:xlink="http://www.w3.org/1999/xlink" x="0px" y="0px"
	 viewBox="0 0 1278 289.2" style="enable-background:new 0 0 1278 289.2;" xml:space="preserve">
<style type="text/css">
	.st0{fill:#FECF0E;}
	.st1{fill:#010101;}
	.st2{fill:#1C1D1B;}
</style>
<g>
	<g>
		<g>
			<path class="st0" d="M205.5,16l-13.8,198.7c-1.1,20-10.8,38.7-27.5,52.5c-16.6,13.8-38.2,21.3-60.8,21.3
				c-22.7,0-44.3-7.6-60.8-21.3c-16.7-13.8-26.4-32.5-27.5-52.5L0.8,16l10.5,10.8l0.4-0.1c1.9-0.5,3.8-0.9,5.7-1.3
				c-2.5,2.5-4,5.8-4,9.5c0,7.3,5.9,13.3,13.3,13.3c7.3,0,13.3-6,13.3-13.3c0-5.5-3.4-10.3-8.3-12.3c2.7-0.5,5.5-1,8.3-1.4l0.3-0.1
				l9.7-15.8l11.1,13l0.3,0c2.9-0.3,5.9-0.6,8.8-0.9c-3.6,2.4-5.8,6.5-5.8,10.9c0,7.3,6,13.3,13.3,13.3c7.3,0,13.3-6,13.3-13.3
				c0-5.1-3-9.7-7.4-11.9c3-0.2,6.1-0.3,9.1-0.4l0.3,0L103,1.1L113.2,16l0.3,0c3.4,0.1,6.8,0.2,10.1,0.4c-4.5,2.2-7.5,6.7-7.5,11.9
				c0,7.3,6,13.3,13.3,13.3c7.3,0,13.3-6,13.3-13.3c0-4.6-2.3-8.7-6-11.1c2.7,0.2,5.4,0.5,8.3,0.8l0.3,0l10.5-12.7L166,20.7l0.3,0
				c3.3,0.5,6.6,1.1,9.8,1.7c-5.2,1.8-8.9,6.8-8.9,12.5c0,7.3,6,13.3,13.3,13.3c7.3,0,13.3-6,13.3-13.3c0-3.8-1.6-7.3-4.3-9.8
				c1.9,0.4,3.7,0.9,5.5,1.3l0.4,0.1L205.5,16z"/>
		</g>
		<path class="st1" d="M206.3,14.3l-11.2,11.6c-2.5-0.6-5.4-1.3-8.6-2c3.9,2.1,6.6,6.3,6.6,11.1c0,7-5.6,12.6-12.6,12.6
			c-7,0-12.6-5.6-12.6-12.6c0-6.6,5.1-12,11.5-12.6c-3.9-0.8-8.3-1.5-13-2.3L155.9,4.2l-10.8,13.1c-3.8-0.4-7.7-0.7-11.8-1
			c5.1,1.6,8.8,6.4,8.8,12c0,7-5.6,12.6-12.6,12.6c-7,0-12.6-5.6-12.6-12.6c0-6.2,4.4-11.3,10.3-12.4c-4.4-0.3-8.9-0.4-13.6-0.6
			L103,0L92.5,15.4c-4.2,0.1-8.3,0.3-12.3,0.6c5.7,1.2,10.1,6.3,10.1,12.3c0,7-5.6,12.6-12.6,12.6c-7,0-12.6-5.6-12.6-12.6
			c0-5.5,3.5-10.1,8.3-11.9c-4.2,0.3-8.2,0.7-12.1,1.2L49.7,4.2l-10,16.3c-3.9,0.6-7.7,1.3-11.1,1.9c6,1,10.6,6.2,10.6,12.4
			c0,7-5.6,12.6-12.6,12.6c-7,0-12.6-5.6-12.6-12.6c0-4.5,2.4-8.5,5.9-10.7c-3.2,0.7-6,1.3-8.4,1.9L0,14.3l14.3,200.5
			c2.3,42,42.1,74.5,89,74.5h0l0,0c0,0,0,0,0,0c46.9,0,86.7-32.5,89-74.5L206.3,14.3z M9.6,27.9l1,1.1l1.4-0.3
			c0.2-0.1,0.5-0.1,0.7-0.2c-0.9,2-1.4,4.2-1.4,6.4c0,8.4,6.8,15.2,15.2,15.2c8.4,0,15.2-6.8,15.2-15.2c0-4.4-1.9-8.5-5-11.3
			c1.1-0.2,2.2-0.4,3.4-0.6l1.2-0.2l0.6-1l8.1-13.3l9.2,10.7l0.9,1l1.4-0.2c1.2-0.1,2.4-0.3,3.5-0.4c-1.7,2.5-2.6,5.4-2.6,8.5
			c0,8.4,6.8,15.2,15.2,15.2c8.4,0,15.2-6.8,15.2-15.2c0-3.9-1.5-7.5-4-10.2c1.2,0,2.5-0.1,3.7-0.1l1.3,0l0.7-1.1L103,4.6l8.4,12.3
			l0.7,1.1l1.3,0c1.6,0,3.1,0.1,4.7,0.1c-2.5,2.7-4,6.3-4,10.2c0,8.4,6.8,15.2,15.2,15.2c8.4,0,15.2-6.8,15.2-15.2
			c0-3.2-1-6.2-2.7-8.7c0.9,0.1,1.9,0.2,2.9,0.3l1.4,0.1l0.9-1.1l8.6-10.4l8.5,13l0.6,1l1.1,0.2c1.6,0.2,3.1,0.5,4.6,0.8
			c-3.3,2.8-5.3,7-5.3,11.5c0,8.4,6.8,15.2,15.2,15.2c8.4,0,15.2-6.8,15.2-15.2c0-2.4-0.5-4.6-1.5-6.7c0.1,0,0.2,0.1,0.4,0.1
			l1.4,0.4l1-1.1l6.2-6.4l-1.1,16l-9.4,18.4c-7.6-1.9-18.1-4.2-31.1-6.2l-6.7-32.4l-10.1,30.2c-10.1-1.1-21.3-1.8-33.4-2.1
			l-8.2-31.7l-8.3,31.8c-11.6,0.3-22.6,1.1-32.8,2.3L50.5,18.8l-6,31.1c-12.8,2-23.4,4.3-31.1,6.2l-9.5-18l-0.1-0.7L3,21.1L9.6,27.9
			z M200.6,58.4l-0.4,6c-13.7-3.9-49.3-12.4-96.7-12.5l-0.2,0c-46.2,0-85.4,9.6-97.4,12.9l-0.2-3.3h0l-0.2-2.8l-1-14.1l6.7,12.7
			l0.9,1.8l2-0.5c6.7-1.6,17.5-4,30.8-6.2l1.8-0.3l0.3-1.8l4.3-22.5l8.3,20.6l0.7,1.8l2-0.2c11-1.3,22-2,32.6-2.3l1.9,0l0.5-1.9
			l5.8-22.1l5.7,22.1l0.5,1.9l2,0c11.1,0.2,22.3,0.9,33.2,2.1l2.1,0.2l0.7-2l7-21.1l4.8,23l0.4,1.8l1.8,0.3
			c10.9,1.7,21.3,3.7,30.9,6.2l2,0.5l0.9-1.8l6.6-13L200.6,58.4z M103.3,61.3l0.2,0c47.9,0,83.5,8.8,96,12.4l-9.8,140.2l0,0l0,0
			c-1.1,19.7-10.6,38-26.8,51.7c-16.2,13.6-37.4,21.1-59.6,21.1c0,0,0,0,0,0c-22.2,0-43.4-7.5-59.6-21.1
			c-16.2-13.6-25.8-32-26.8-51.7l0,0l0,0L6.6,74C16.9,71.2,56.6,61.3,103.3,61.3z M199.7,71c-13.9-3.9-48.9-12.3-96.2-12.3
			c-0.1,0-0.1,0-0.2,0c-44.5,0-82.8,8.9-96.9,12.7l-0.3-4c13.8-3.8,52.4-12.9,97.2-12.9c0.1,0,0.1,0,0.2,0
			c47.6,0,82.8,8.6,96.5,12.5L199.7,71z"/>
		<path class="st2" d="M180.2,121.7c-4-0.7-7.8-1.4-11.8-2.7c-0.1,0.2-0.1,0.5-0.2,0.7c0.5-8-1.9-15.5-7-21.7
			c4-1.7,6.8-5.8,6.8-10.2c0-4.3-2.7-8.5-6.7-10.2c-4-1.7-8.5-1-12.7-0.1c-10.6,2.2-21,5.2-31.1,9c-3.9,1.5-8,3.1-12.1,2.8
			c-4.2-0.3-8.5-3.2-8.9-7.4c0.1-3.1,1.6-5.6,4.3-7.2c-3.7-0.2-7.4,1.9-9,5.2c-1.6,3.3-1.1,7.5,1.3,10.3c2,2.4,5.2,3.6,8.3,3.9
			c3.1,0.3,6.2-0.2,9.3-0.9c11-2.2,21.7-5.6,32.1-9.7c2.8-1.1,5.5-2.2,8.5-2.7c2.9-0.4,6.1-0.1,8.6,1.5c2.5,1.6,4,4.8,3.2,7.7
			c-0.8,2.9-3.8,4.5-6.7,4c-8.1-1.3-16.4,0.1-24.4,2c-8,1.9-15.9,4.3-24.1,5s-17.3-0.1-24-4.8c-0.6-6.3-2.9-12.9-7.9-16.8
			c0.7-0.9,1.2-1.8,1.4-2.8c-1.4,0.2-2.9,0.6-4.3,1c-3.9-1.9-8.5-2.4-12.9-1.8c-5.5,0.7-10.7,2.8-15.8,4.8c0.3,2.6,0.7,5.1,1,7.7
			c1-1,3.7-0.8,4.7,0.1c0.5,0.5,0.8,1.1,1,1.7c-1.1,0.1-2.3,0.3-3.5,0.4c-2.1,0.2-4.4,0.3-6.2-0.8c-2.3-1.4-4.1-5.1-4.8-7.7
			c-1.4,2-1.6,4.7-0.6,7c1,2.2,3.2,3.8,5.6,4.1c3.3,0.4,6.6,0.4,9.7-0.1c-0.1,0.6-0.2,1.1-0.5,1.6c-0.4,0.7-1.2,1.3-2,1.2
			c-0.8-0.1-1.6-0.5-1.3-1.3c-1.1,1.7-0.2,4.2,1.7,5c1.8,0.8,4.8,0,5.6-1.8c-0.3,1.4-0.5,3.2-0.7,4.7c-4.8-1.3-10.2-1.5-15.2-1.1
			c-0.2-1.9-1.8-3.4-3.6-4.2c-3-1.3-6.6-1-9.3,0.9c-1.2,0.9-2.2,2-2.8,3.3c-0.6,1.3-0.9,2.9-0.7,4.3c1.2-1.9,3.6-3,5.8-2.7
			c2.2,0.3,4.4,2.4,5,4.6c7.6,4.9,15.4,10.2,22.9,15.3c-4.4,1.6-8.8,4.1-12.1,7.4c-3.4-0.4-6.9-0.2-10.2,0.6
			c-1.5,0.4-3.1,0.9-4.2,1.9c-0.9,0.8-1.4,2.1-1.8,3.3h33.4c6.8-2.4,13.8-4.9,21-5.6c1.6-0.1,3.5-1.3,3.6-2.9
			c8.4-0.7,16.6-3.2,24-7.3c6-3.4,12.1-7.6,18.9-8.6c-0.7,5.4-0.5,11.7-0.6,17.1c-3.8,0-7.7,0.8-11.2,2.4c-1,0.4-1.9,0.9-2.7,1.7
			c-0.7,0.7-1.2,2.2-1.3,3.2h22.9c2.4-7,6.4-14.5,11.2-19.8c6.4,5.4,13.6,10.9,21.3,14.1c-2,0.3-4,0.6-5.8,1.5
			c-1.5,0.8-2.5,2.5-3,4.2h20.6C180.3,132.4,180.2,125.1,180.2,121.7z M57.2,82.1c-0.5,0.6-1.3,1-1.9,0.6c-0.8-0.4-0.6-1.8,0.2-2.3
			c0.8-0.5,1.8-0.4,2.7-0.4l-0.4,0.2c0.3-0.1,0.6-0.1,0.8,0.1C58,80.9,57.7,81.6,57.2,82.1z"/>
		<path class="st2" d="M174.8,184.8c-3.8-0.6-7.3-1.3-11-2.5c0,0.2-0.1,0.4-0.1,0.7c0.5-7.5-1.7-14.5-6.5-20.2
			c3.7-1.5,6.3-5.4,6.3-9.5c0-4-2.5-8-6.2-9.5c-3.7-1.6-7.9-0.9-11.8-0.1c-9.8,2.1-19.5,4.9-28.9,8.4c-3.6,1.4-7.4,2.9-11.3,2.6
			c-3.9-0.3-7.9-3-8.3-6.9c0.1-2.9,1.5-5.2,4-6.7c-3.4-0.2-6.9,1.8-8.4,4.8c-1.5,3.1-1,7,1.2,9.6c1.9,2.2,4.8,3.3,7.7,3.6
			c2.9,0.3,5.8-0.2,8.7-0.8c10.2-2.1,20.2-5.3,29.9-9.1c2.6-1,5.2-2.1,7.9-2.5c2.7-0.4,5.7-0.1,8,1.4c2.3,1.5,3.7,4.5,3,7.1
			s-3.6,4.2-6.3,3.7c-7.6-1.2-15.3,0.1-22.8,1.9c-7.5,1.8-14.9,4-22.5,4.7c-7.6,0.6-16.1,0-22.3-4.5c-0.6-5.9-2.7-12-7.4-15.6
			c0.6-0.8,1.1-1.7,1.4-2.6c-1.3,0.2-2.7,0.6-4,0.9c-3.6-1.8-7.9-2.2-12-1.7c-5.1,0.6-10,2.6-14.8,4.5c0.3,2.4,0.6,4.8,1,7.1
			c0.9-0.9,3.5-0.8,4.4,0.1c0.5,0.5,0.7,1,0.9,1.6c-1.1,0.1-2.1,0.2-3.2,0.4c-2,0.2-4.1,0.3-5.8-0.8c-2.1-1.3-3.8-4.8-4.5-7.2
			c-1.3,1.9-1.5,4.4-0.5,6.5c0.9,2.1,3,3.6,5.2,3.9c3.1,0.4,6.1,0.4,9.1-0.1c0,0.5-0.2,1-0.4,1.5c-0.4,0.7-1.1,1.2-1.9,1.1
			c-0.8-0.1-1.5-0.5-1.2-1.2c-1,1.6-0.2,4,1.5,4.7c1.7,0.7,4.5,0,5.3-1.7c-0.3,1.3-0.4,3-0.7,4.3c-4.5-1.2-9.5-1.4-14.1-1
			c-0.2-1.8-1.7-3.2-3.3-3.9c-2.8-1.2-6.2-0.9-8.6,0.8c-1.1,0.8-2.1,1.9-2.6,3.1c-0.6,1.2-0.8,2.7-0.7,4c1.1-1.8,3.3-2.8,5.4-2.5
			c2.1,0.3,4.1,2.2,4.6,4.2c7.1,4.6,14.3,9.5,21.3,14.2c-4.1,1.4-8.2,3.9-11.3,6.9c-3.2-0.4-6.4-0.2-9.5,0.6
			c-1.4,0.3-2.9,0.8-3.9,1.8c-0.8,0.8-1.3,1.9-1.7,3.1H64c6.4-2.2,12.9-4.6,19.6-5.2c1.5-0.1,3.2-1.2,3.3-2.7
			c7.8-0.7,15.5-3,22.3-6.8c5.6-3.1,11.2-7,17.6-8.1c-0.7,5-0.5,10.9-0.5,16c-3.6,0-7.1,0.8-10.4,2.2c-0.9,0.4-1.8,0.9-2.5,1.6
			c-0.6,0.6-1.1,2-1.2,3h21.4c2.3-6.5,6-13.5,10.4-18.4c6,5,12.7,10.2,19.9,13.1c-1.9,0.3-3.8,0.6-5.4,1.4c-1.4,0.7-2.4,2.3-2.8,3.9
			h19.2C174.9,194.7,174.8,188,174.8,184.8z M60.2,147.9c-0.4,0.5-1.2,0.9-1.8,0.6c-0.8-0.4-0.6-1.7,0.2-2.2
			c0.7-0.5,1.7-0.4,2.6-0.3l-0.3,0.2c0.2-0.1,0.6-0.1,0.7,0.1C61,146.7,60.7,147.4,60.2,147.9z"/>
		<path class="st2" d="M163.7,241.4c-3.2-0.5-6.2-1.1-9.3-2.1c0,0.2-0.1,0.4-0.1,0.6c0.4-6.3-1.5-12.3-5.6-17.1
			c3.2-1.3,5.4-4.6,5.4-8c0-3.4-2.1-6.7-5.3-8.1c-3.1-1.4-6.7-0.8-10-0.1c-8.4,1.7-16.6,4.1-24.6,7.1c-3.1,1.2-6.3,2.4-9.6,2.2
			c-3.3-0.2-6.7-2.5-7-5.8c0.1-2.4,1.3-4.4,3.4-5.7c-2.9-0.2-5.8,1.5-7.1,4.1c-1.3,2.6-0.9,6,1,8.2c1.6,1.9,4.1,2.8,6.6,3.1
			c2.5,0.2,4.9-0.2,7.3-0.7c8.7-1.8,17.1-4.5,25.4-7.7c2.2-0.9,4.4-1.8,6.7-2.1c2.3-0.3,4.8-0.1,6.8,1.2c1.9,1.3,3.2,3.8,2.5,6.1
			c-0.6,2.3-3,3.5-5.3,3.1c-6.4-1.1-13,0.1-19.3,1.6c-6.3,1.5-12.6,3.4-19.1,4c-6.5,0.5-13.6,0-19-3.8c-0.5-5-2.3-10.2-6.2-13.2
			c0.5-0.7,0.9-1.5,1.1-2.2c-1.1,0.2-2.3,0.5-3.4,0.8c-3.1-1.5-6.7-1.9-10.2-1.4c-4.3,0.5-8.5,2.2-12.5,3.8c0.3,2,0.5,4,0.8,6.1
			c0.8-0.8,3-0.7,3.7,0.1c0.4,0.4,0.6,0.9,0.8,1.4c-0.9,0.1-1.8,0.2-2.8,0.3c-1.7,0.2-3.5,0.2-4.9-0.6c-1.8-1.1-3.3-4-3.8-6.1
			c-1.1,1.6-1.3,3.7-0.5,5.5c0.8,1.7,2.5,3,4.4,3.3c2.6,0.3,5.2,0.3,7.7-0.1c0,0.4-0.1,0.9-0.4,1.2c-0.3,0.6-1,1-1.6,0.9
			c-0.6-0.1-1.2-0.4-1-1c-0.8,1.3-0.1,3.4,1.3,4c1.5,0.6,3.8,0,4.5-1.4c-0.2,1.1-0.4,2.6-0.6,3.7c-3.8-1-8.1-1.2-12-0.9
			c-0.2-1.5-1.4-2.7-2.8-3.3c-2.3-1-5.2-0.8-7.3,0.7c-1,0.7-1.7,1.6-2.2,2.6c-0.5,1.1-0.7,2.3-0.6,3.4c0.9-1.5,2.8-2.4,4.6-2.1
			c1.8,0.3,3.5,1.9,3.9,3.6c6,3.9,12.1,8.1,18.1,12.1c-3.5,1.2-6.9,3.3-9.5,5.9c-2.7-0.3-5.4-0.1-8.1,0.5c-1.2,0.3-2.4,0.7-3.3,1.5
			c-0.7,0.7-1.1,1.6-1.4,2.6h26.4c5.4-1.9,10.9-3.9,16.6-4.4c1.3-0.1,2.7-1,2.8-2.3c6.6-0.6,13.1-2.5,18.9-5.8
			c4.8-2.7,9.5-6,14.9-6.8c-0.6,4.2-0.4,9.3-0.4,13.5c-3,0-6.1,0.7-8.8,1.9c-0.8,0.3-1.5,0.7-2.1,1.3c-0.5,0.5-1,1.7-1,2.6h18.1
			c1.9-5.5,5-11.4,8.8-15.6c5.1,4.3,10.8,8.6,16.9,11.1c-1.6,0.2-3.2,0.5-4.6,1.2c-1.2,0.6-2,1.9-2.4,3.3h16.3
			C163.8,249.9,163.7,244.2,163.7,241.4z M66.5,210.2c-0.4,0.4-1,0.8-1.5,0.5c-0.7-0.4-0.5-1.4,0.1-1.9c0.6-0.4,1.4-0.4,2.2-0.3
			l-0.3,0.2c0.2-0.1,0.5,0,0.6,0.1C67.1,209.2,66.8,209.7,66.5,210.2z"/>
	</g>
	<g>
		<g>
			<g>
				<rect x="590.9" y="215.5" class="st0" width="687.1" height="15"/>
			</g>
		</g>
		<g>
			<g>
				<rect x="321.2" y="215.5" width="269.7" height="15"/>
			</g>
		</g>
		<path class="st0" d="M379.6,192.3c-3.8,0-7.5-0.3-11.1-1c-3.5-0.7-6.8-1.4-9.9-2.2c-2.9-0.8-5.5-1.5-7.8-2.2s-3.9-1-4.8-1
			c-1.2,0-2.3,0.3-3.3,0.9c-1,0.6-2,1.3-2.9,2.1c-1.1,0.9-1.9,1.4-2.5,1.4c-0.9,0-1.8-0.3-2.5-0.9c-0.8-0.6-1.2-1.3-1.2-2.1
			c0-1.4,0.3-3.8,1-7.4c0.7-3.5,1-7.3,1-11.3l-0.5-108.5c0-4-0.8-7.5-2.5-10.5c-1.7-3-4.1-5.1-7.4-6.3c-0.8-0.3-1.5-0.7-2.1-1.3
			c-0.6-0.5-0.9-1.3-0.9-2.2c0-0.8,0.3-1.4,0.8-1.8c0.5-0.5,1.2-0.8,2-0.9c2.5-0.5,5.6-1.3,9.4-2.6c3.8-1.3,7.5-2.6,10.9-4
			c3.5-1.4,6-2.4,7.5-3c1.1-0.5,1.8-0.7,2.3-0.7c0.6,0,1.1,0.2,1.4,0.6c0.3,0.4,0.5,0.9,0.5,1.5c0,0.8-0.1,3.1-0.3,7
			s-0.3,8.5-0.3,13.7l-0.2,47.9c0,2.6,0.2,4.5,0.6,5.5c0.4,1.1,0.9,1.6,1.5,1.6c4.8-3.7,10.1-6.6,16-8.9c5.9-2.2,11.3-3.3,16.2-3.3
			c7.8,0,14.9,2,21.2,6c6.3,4,11.3,9.5,15.1,16.5c3.8,7,5.6,14.9,5.6,23.6c0,10.6-2.2,20-6.7,28.1c-4.5,8.1-10.6,14.5-18.5,19
			C399.2,190.1,390,192.3,379.6,192.3z M384.4,184.3c5.2,0,9.7-1.8,13.5-5.4c3.8-3.6,6.7-8.5,8.8-14.6c2.1-6.1,3.1-12.9,3.1-20.3
			c0-6.1-1-12.4-3-18.7c-2-6.3-5.1-11.6-9.4-15.8c-4.3-4.2-9.8-6.3-16.4-6.3c-4.9,0-9.5,0.8-13.8,2.3c-4.3,1.5-8,3.6-11.1,6.2V158
			c0,5.2,1.3,9.8,4,13.8c2.7,4,6.2,7.1,10.6,9.2C375.1,183.2,379.6,184.3,384.4,184.3z"/>
		<path class="st0" d="M488.8,195.1c-0.3,0-0.7-0.2-1.2-0.6c-0.5-0.4-0.8-0.9-1.2-1.5L454,113.1c-1.1-3.2-2.7-5.9-4.8-7.9
			c-2.2-2.1-4.5-3.5-6.9-4.3c-1.4-0.5-2.6-1-3.6-1.7c-1-0.7-1.5-1.6-1.5-2.6c0-1.1,0.6-1.7,1.8-2c1.2-0.2,2.2-0.3,3-0.3
			c2.6,0,4.9,0.1,6.8,0.2c1.9,0.2,3.8,0.3,5.8,0.6c1.9,0.2,4,0.3,6.3,0.3c2.5,0,4.8-0.1,7-0.3c2.2-0.2,4.4-0.4,6.6-0.6
			c2.1-0.2,4.5-0.2,7.1-0.2c0.8,0,1.8,0.2,3,0.5c1.2,0.3,1.8,0.9,1.8,1.8c0,1.2-0.6,2.1-1.7,2.6c-1.2,0.5-2.3,1.1-3.6,1.7
			c-1.5,0.5-2.7,1.5-3.6,3.1c-0.8,1.6-1.3,3.6-1.3,5.9c0,2.3,0.5,4.6,1.4,6.9l16.4,42.6c0.2,0.5,0.5,0.7,0.9,0.7
			c0.5,0,0.8-0.2,0.9-0.7l15.7-36.9c0.6-1.7,1-3.3,1.3-5c0.2-1.6,0.3-3.2,0.3-4.7c0-2.8-1.2-5.2-3.5-7.3c-2.3-2.1-4.8-3.6-7.4-4.7
			c-1.4-0.5-2.6-1-3.6-1.6c-1-0.6-1.5-1.5-1.5-2.8c0-0.9,0.6-1.5,1.8-1.8c1.2-0.3,2.4-0.5,3.5-0.5c2.8,0,5.6,0.2,8.5,0.6
			c2.9,0.4,6.1,0.6,9.7,0.6c4.3,0,8.1-0.2,11.3-0.6c3.2-0.4,6.4-0.6,9.4-0.6c0.9,0,2,0.2,3.1,0.5c1.2,0.3,1.7,1,1.7,2.1
			c0,1.1-0.6,1.9-1.7,2.5c-1.2,0.6-2.3,1.2-3.6,1.6c-1.7,0.6-3.3,1.5-4.7,2.5c-1.5,1.1-2.2,2.9-2.2,5.5c0,1.2,0.1,2.5,0.3,3.8
			c0.2,1.3,0.7,2.6,1.3,4l16.1,41.5c0.5,1.2,0.9,1.8,1.4,1.8s0.9-0.5,1.4-1.6l15.9-38c0.6-1.4,1-3,1.3-4.7c0.2-1.8,0.3-3.3,0.3-4.5
			c0-2.6-0.8-4.8-2.4-6.6c-1.6-1.8-3.3-3-5.2-3.6c-1.2-0.5-2.4-1-3.6-1.6c-1.2-0.6-1.7-1.5-1.7-2.8c0-0.9,0.6-1.5,1.8-1.8
			c1.2-0.3,2.2-0.5,3-0.5c3.8,0,6.7,0.2,8.6,0.5c1.9,0.3,4.6,0.5,8.2,0.5c2.5,0,4.3-0.1,5.5-0.2c1.2-0.2,2.4-0.3,3.6-0.5
			c1.2-0.2,2.8-0.2,5-0.2c0.9,0,2,0.1,3.1,0.3c1.2,0.2,1.7,0.9,1.7,2c0,1.1-0.5,2-1.5,2.6c-1,0.7-2.1,1.3-3.3,1.7
			c-2.6,0.8-5,2.5-7.1,5.3c-2.2,2.8-4,5.9-5.5,9.4L550.5,193c-0.6,1.2-1.5,1.8-2.8,1.8c-0.9,0-1.8-0.6-2.5-1.8l-25.6-61.7
			c-0.3-0.9-0.7-1.4-1.2-1.4c-0.5,0-0.8,0.5-1.2,1.6L491.5,193C490.9,194.4,490,195.1,488.8,195.1z"/>
		<path d="M609.5,190c-1.7,0-3.1-0.2-4.3-0.6c-1.2-0.4-1.7-1.1-1.7-2.2c0-2,2.2-3.5,6.7-4.4c5.8-1.1,10.1-2.8,12.9-5.1
			c2.8-2.3,4.1-6.1,4.1-11.3V62.4c0-5.2-1.1-8.9-3.2-11.2c-2.2-2.2-6.1-4-12-5.2c-4.5-0.9-6.7-2.5-6.7-4.6c0-1.1,0.5-1.8,1.6-2.3
			c1.1-0.5,2.5-0.7,4.1-0.7c4,0,7.6,0.1,10.7,0.2c3.1,0.2,6.2,0.3,9.1,0.5c2.9,0.2,6.1,0.2,9.4,0.2c3.2,0,6.3,0,9.1-0.1
			c2.8-0.1,5.8-0.2,8.8-0.3c3-0.2,6.4-0.2,10.3-0.2c1.8,0,3.3,0.2,4.4,0.6c1.1,0.4,1.6,1.1,1.6,2.2c0,1.2-0.6,2.2-1.7,2.9
			c-1.2,0.7-2.8,1.3-5,1.7c-6,1.4-10.2,3.1-12.6,5.3c-2.4,2.2-3.6,5.8-3.6,11.1v104.1c0,5.1,1.5,8.8,4.4,11.1
			c2.9,2.3,7.2,4.1,12.9,5.3c2.3,0.5,4,1,5.1,1.6c1.1,0.6,1.6,1.5,1.6,2.8c0,0.9-0.5,1.6-1.5,2.1c-1,0.5-2.4,0.7-4.3,0.7
			c-3.8,0-7.4-0.1-10.6-0.3c-3.2-0.2-6.3-0.4-9.3-0.6c-3-0.2-6.2-0.2-9.6-0.2c-3.7,0-7.1,0.1-10.3,0.2c-3.2,0.2-6.4,0.3-9.8,0.6
			C616.9,189.9,613.3,190,609.5,190z"/>
		<path d="M689.4,189.8c-1.2,0-2.3-0.2-3.2-0.7c-0.9-0.5-1.4-1.2-1.4-2.1c0-1.2,0.5-2.1,1.5-2.6c1-0.5,2.3-1,3.8-1.5
			c2.3-0.6,4.5-1.5,6.5-2.5c2-1.1,3-3.1,3-6.2v-50.7c0-3.8-0.4-7.1-1.3-9.8c-0.8-2.7-3.1-4.5-6.8-5.4c-0.6-0.2-1.2-0.5-1.6-1
			c-0.5-0.5-0.7-1.3-0.7-2.2c0-2,0.7-3.1,2.1-3.2c5.4-1.4,10.3-3.1,14.6-5.1c4.4-2,8.4-4.2,12.1-6.7c0.5-0.3,1-0.6,1.5-0.9
			c0.5-0.3,1-0.5,1.5-0.5c0.6,0,1,0.2,1.3,0.6c0.2,0.4,0.3,0.9,0.3,1.5c0,1.1-0.2,3.2-0.6,6.2c-0.4,3.1-0.6,5.7-0.6,7.8
			c0,0.6,0,1.2,0.1,1.8c0.1,0.6,0.2,1,0.3,1.2c5.4-5.1,10.9-8.9,16.7-11.5c5.8-2.6,12.2-3.9,19.5-3.9c7.7,0,14.1,3,19.1,9
			c5.1,6,7.6,13.7,7.6,23.3v49.8c0,3.1,1,5.1,3.1,6c2.1,0.9,4.3,1.8,6.6,2.5c1.2,0.5,2.4,1,3.5,1.6c1.1,0.6,1.6,1.5,1.6,2.8
			c0,1.1-0.5,1.8-1.5,2.1c-1,0.3-2,0.5-2.9,0.5c-3.1,0-5.6-0.1-7.7-0.3c-2.1-0.2-4.1-0.4-6-0.6c-1.9-0.2-4.3-0.2-7-0.2
			c-2.6,0-4.9,0.1-6.9,0.2c-2,0.2-4,0.3-6.1,0.6c-2.1,0.2-4.6,0.3-7.7,0.3c-0.8,0-1.7-0.2-2.8-0.5c-1.1-0.3-1.6-1-1.6-2.1
			c0-1.2,0.5-2.1,1.6-2.8c1.1-0.6,2.2-1.2,3.5-1.6c2.3-0.8,4.5-1.6,6.5-2.5c2-0.9,3-2.9,3-6v-47.7c0-6.5-1.7-11.4-5.2-15
			c-3.5-3.5-7.9-5.4-13.5-5.5c-4.8,0-8.9,0.7-12.6,2.2c-3.6,1.5-7,3.4-10,5.9c-0.6,0.6-1.1,1.4-1.4,2.3c-0.3,0.9-0.5,1.8-0.5,2.5
			v55.3c0,3.1,1,5.1,3,6.1c2,1,4.1,1.8,6.2,2.4c3.4,1.1,5.1,2.5,5.1,4.1c0,0.9-0.4,1.6-1.2,2.1c-0.8,0.5-1.8,0.7-3.2,0.7
			c-3.1,0-5.6-0.1-7.7-0.3c-2.1-0.2-4-0.4-5.8-0.6c-1.8-0.2-4-0.2-6.8-0.2c-2.6,0-4.9,0.1-6.9,0.2c-2,0.2-4.1,0.3-6.2,0.6
			C695.1,189.7,692.5,189.8,689.4,189.8z"/>
		<path d="M814,189.8c-1.4,0-2.5-0.2-3.3-0.7c-0.8-0.5-1.3-1.2-1.3-2.1c0-1.2,0.5-2.1,1.4-2.6c0.9-0.5,2.1-1,3.5-1.3
			c3.8-0.9,6.5-2.1,7.8-3.5c1.4-1.4,2.1-3.5,2.1-6.5V108c-1.5,0-3.3,0-5.3-0.1c-2-0.1-4.2-0.2-6.7-0.3c-0.6-0.2-1.3-0.8-2.1-2
			c-0.8-1.2-1.2-2.2-1.2-3.1c0-0.3,0.2-0.6,0.7-0.9c0.5-0.3,0.8-0.5,1.2-0.7c2.5-1.2,4.7-2.3,6.8-3.3c2.1-1,4.3-2,6.6-3.1
			c0.3-13.1,2.2-24,5.8-32.7c3.5-8.8,8-15.7,13.5-20.8s11.2-8.8,17.3-11.1c6.1-2.2,11.8-3.3,17.2-3.3c9.2,0,16,1.3,20.4,4
			c4.4,2.7,6.6,6.4,6.6,11.2c0,3.2-0.8,5.7-2.3,7.5c-1.5,1.8-3.5,2.6-6,2.6c-1.4,0-2.7-0.6-3.9-1.7c-1.2-1.2-2.6-2.5-4.1-4
			c-2.2-2.3-4.8-4.5-7.9-6.6c-3.1-2.1-7.3-3.1-12.3-3.1c-6.9,0-12.4,3-16.6,8.9c-4.1,5.9-6.2,15.2-6.2,27.8v19.8
			c0,1.1,0.3,1.8,0.9,2.1c0.6,0.3,1.3,0.5,2.1,0.5H876c0.9,0,1.7,0.3,2.3,0.9c0.6,0.6,0.9,1.3,0.9,2.1c0,1.2-0.1,2.5-0.3,3.8
			c-0.2,1.3-0.6,2.4-1,3.3c-0.6,1.2-1.3,1.8-2.1,1.8h-24.6c-2.5,0-4,0.3-4.7,1c-0.7,0.7-1,1.7-1,2.9v60.6c0,3.4,1,5.8,2.9,7.4
			c1.9,1.5,6,2.8,12.3,3.7c3.2,0.6,4.8,1.9,4.8,3.9c0,0.9-0.4,1.7-1.2,2.2c-0.8,0.5-1.8,0.8-3,0.8c-4.6,0-9.1-0.2-13.5-0.6
			c-4.4-0.4-8.6-0.6-12.6-0.6c-2.6,0-5,0.1-7,0.2c-2.1,0.2-4.2,0.3-6.3,0.6C819.7,189.7,817.1,189.8,814,189.8z"/>
		<path d="M929.2,192.3c-8.8,0-16.7-2-23.8-6.1c-7.1-4.1-12.8-9.6-16.9-16.7c-4.1-7.1-6.2-15.1-6.2-24.2c0-6.8,1.3-13.3,3.9-19.6
			c2.6-6.3,6.3-12,11.1-17c4.8-5.1,10.3-9.1,16.6-12.1c6.3-3,13.1-4.5,20.3-4.5c9.1,0,17.3,2.2,24.6,6.6
			c7.4,4.4,13.2,10.1,17.5,17.2c4.3,7.1,6.5,14.8,6.5,23.3c0,9.2-2,17.9-6,26c-4,8.1-9.9,14.7-17.9,19.7
			C950.9,189.8,941.1,192.3,929.2,192.3z M934.1,184.3c4.5,0,8.4-0.9,12-2.6c3.5-1.8,6.3-4.5,8.3-8.2c1.8-3.5,3.1-7.9,3.8-13
			c0.7-5.1,1-10.4,1-15.8c0-7.7-1.2-14.9-3.7-21.7c-2.5-6.8-5.8-12.2-10.1-16.4c-4.3-4.1-9.4-6.2-15.2-6.2c-3.5,0-6.7,0.6-9.6,1.7
			c-2.8,1.2-5.4,3.1-7.7,5.9c-2.9,3.5-4.8,8.1-5.8,13.7c-0.9,5.6-1.4,11.7-1.4,18.3c0,7.4,1.2,14.4,3.7,21.2
			c2.5,6.8,5.8,12.3,10,16.6C923.7,182.1,928.5,184.3,934.1,184.3z"/>
		<path d="M1038,192.6c-6.5,0-12.5-0.9-18.2-2.6c-5.7-1.8-10.9-4.4-15.7-7.9c-0.6-0.6-1.3-1.3-2-2.2c-0.7-0.8-1.2-1.7-1.5-2.6
			c-1.1-3.5-1.8-7.9-2.2-13.2c-0.4-5.3-0.7-10-0.8-14.2c0-1.1,0.5-1.9,1.4-2.4c0.9-0.5,2-0.8,3.2-0.8c1.1,0,2,0.2,2.6,0.6
			c0.7,0.4,1.2,1.1,1.5,2.2c3.2,11.7,8,20.4,14.3,26.1c6.3,5.8,13.1,8.6,20.5,8.6c5.2,0,9.7-1.2,13.5-3.5c3.8-2.3,6.7-5.4,8.9-9.3
			c2.1-3.9,3.2-8.3,3.2-13.2c0-5.8-1-10.6-3-14.3c-2-3.7-4.9-7-8.8-9.9c-3.8-2.9-8.6-6.1-14.3-9.4c-6.1-3.7-12.2-7.5-18.1-11.5
			c-5.9-4-10.8-8.7-14.6-14.1c-3.8-5.4-5.8-12-5.8-19.8c0-8.3,2-15.6,5.9-22c3.9-6.4,9.6-11.4,17.2-15.2c7.5-3.8,16.6-5.6,27.2-5.6
			c5.5,0,10.6,0.6,15.1,1.7c4.5,1.2,8.2,2.3,10.9,3.6c1.4,0.5,2.5,1.2,3.3,2.3c0.8,1.1,1.5,2.4,2,3.9c0.8,3.2,1.6,7,2.5,11.3
			c0.9,4.3,1.4,8.7,1.4,13.1c0,1.7-1.2,2.5-3.7,2.5c-1.4,0-2.7-0.3-3.9-0.9c-1.2-0.6-2-1.4-2.3-2.3c-3.1-8.6-6.9-15.1-11.4-19.6
			c-4.5-4.5-10.3-6.7-17.2-6.7c-4.6,0-8.8,0.8-12.6,2.4c-3.8,1.6-6.8,4.2-9,7.8c-2.2,3.6-3.3,8.3-3.3,14.2c0,4.1,1.4,8,4.3,11.6
			c2.8,3.6,6.7,7.1,11.5,10.4c4.8,3.3,10.3,6.7,16.2,10.3c6.3,3.8,12,7.8,17,12c5.1,4.1,9.1,8.9,12,14.2c2.9,5.3,4.4,11.6,4.4,19
			c0,9.7-2.2,17.9-6.5,24.8c-4.3,6.8-10.3,12-18.1,15.6C1057.5,190.8,1048.4,192.6,1038,192.6z"/>
		<path d="M1149,192.6c-8.3,0-15.6-2.1-22-6.3c-6.4-4.2-11.4-10.1-15.1-17.7c-3.7-7.6-5.5-16.4-5.5-26.4c0-9.1,2.1-17.4,6.3-24.9
			c4.2-7.5,9.9-13.6,16.9-18.1c7.1-4.5,14.8-6.8,23.3-6.8c6.3,0,11.9,1.3,16.9,3.8c5,2.5,8.9,6.1,11.8,10.6
			c2.8,4.5,4.3,9.7,4.3,15.6c0,5.1-2.4,7.6-7.1,7.6H1131c-2.2,0-3.7,0.6-4.6,1.8c-0.9,1.2-1.4,3.5-1.4,6.7c0,6.8,1.5,12.9,4.6,18.5
			c3.1,5.6,7.1,10.1,12.2,13.5c5.1,3.4,10.7,5.1,16.8,5.1c4.6,0,8.8-0.9,12.6-2.6c3.8-1.8,7.3-4.3,10.5-7.5c0.5-0.6,0.9-1.1,1.3-1.4
			c0.4-0.3,0.8-0.5,1.3-0.5c1.4,0,2.1,0.8,2.1,2.5c0,2.5-1.1,5.4-3.2,8.8c-2.2,3.2-4.9,6.2-8.2,8.9c-3.3,2.7-7.1,4.8-11.5,6.5
			C1159,191.7,1154.2,192.6,1149,192.6z M1131.3,122.1h18.4c4,0,7.1-0.1,9.4-0.2c2.3-0.1,4.5-0.5,6.4-0.9c0.8-0.3,1.3-1,1.6-2
			c0.3-1,0.5-2.3,0.5-3.8c0-4.3-1.8-7.9-5.3-10.9c-3.5-3-7.8-4.5-12.7-4.5c-3.4,0-6.7,1-10,3c-3.3,2-6,4.5-8.2,7.5
			c-2.2,3-3.1,6-3,9.1C1128.5,121.1,1129.4,122.1,1131.3,122.1z"/>
		<path d="M1239.5,192.6c-7.8,0-14.9-2-21.2-6.1c-6.3-4.1-11.3-9.6-15-16.7c-3.7-7.1-5.5-15-5.5-23.7c0-10,2.2-19,6.7-27.2
			c4.5-8.1,10.4-14.6,18-19.4c7.5-4.8,15.8-7.1,24.9-7.1c10.9,0,20.3,3.2,28.1,9.4c1.7,1.5,2.5,3,2.5,4.4c0,1.1-0.6,2.4-1.7,4
			c-1.2,1.6-2.5,3-4.1,4.1c-1.6,1.2-3.1,1.7-4.5,1.7c-0.9,0-1.9-0.3-2.9-0.9c-1-0.6-2-1.3-2.9-2.1c-3.7-2.9-7.6-5.5-11.6-7.7
			c-4.1-2.2-7.6-3.3-10.5-3.3c-6.9,0-12.4,3.1-16.5,9.3c-4.1,6.2-6.1,14.9-6.1,26.1c0,7.4,1.4,13.9,4.3,19.6
			c2.8,5.7,6.8,10.1,11.7,13.4c5,3.2,10.7,4.8,17.2,4.8c4.5,0,8.3-0.7,11.6-2.2c3.3-1.5,6.8-4,10.5-7.5c0.5-0.3,1-0.6,1.5-0.9
			c0.5-0.3,1-0.5,1.5-0.5c1.7,0,2.5,1.2,2.5,3.5c0,0.8-0.2,1.7-0.7,2.9c-0.5,1.2-1.2,2.4-2.1,3.8c-2.2,3.1-5,6-8.5,8.9
			c-3.5,2.8-7.6,5.1-12.2,6.8C1249.9,191.7,1244.9,192.6,1239.5,192.6z"/>
	</g>
</g>
</svg>
